<?xml version="1.0" encoding="UTF-8" standalone="no"?>
<!DOCTYPE svg PUBLIC "-//W3C//DTD SVG 1.1//EN" "http://www.w3.org/Graphics/SVG/1.1/DTD/svg11.dtd">
<svg xmlns="http://www.w3.org/2000/svg" version="1.1" viewBox="0.00 0.00 300.00 116.00">
<g stroke-width="2.00" fill="none" stroke-linecap="butt">
<path stroke="#808080" vector-effect="non-scaling-stroke" d="
  M 97.36 64.54
  C 97.72 74.05 109.23 67.37 112.02 63.58
  Q 112.39 63.06 112.60 63.67
  C 115.62 72.63 127.29 61.63 129.80 57.94
  Q 130.22 57.33 130.50 58.02
  C 134.52 67.79 146.33 61.41 151.12 56.05
  Q 151.91 55.16 151.56 56.30
  L 150.43 59.89
  Q 150.27 60.40 150.81 60.37
  Q 154.12 60.23 157.05 58.68
  A 1.15 1.13 83.2 0 0 157.64 57.92
  C 158.66 53.14 162.85 35.16 168.34 36.32
  C 169.80 36.63 169.78 38.16 169.41 39.42
  C 167.85 44.85 164.97 53.16 167.42 55.82
  C 171.70 60.45 181.50 52.29 184.16 49.07
  Q 184.62 48.51 184.79 49.22
  C 186.66 57.13 195.85 52.76 199.13 48.94
  Q 199.53 48.48 199.81 49.02
  C 202.66 54.45 210.95 49.46 214.13 46.84
  A 0.32 0.32 0.0 0 1 214.64 47.17
  L 214.24 48.73
  Q 214.08 49.37 214.73 49.26
  L 220.72 48.28
  Q 221.27 48.19 221.46 47.67
  C 222.96 43.43 226.85 28.41 232.46 28.24
  A 1.40 1.40 0.0 0 1 233.83 30.07
  L 228.55 46.37
  A 0.55 0.54 5.9 0 0 229.13 47.08
  L 235.14 46.43
  Q 235.63 46.38 235.80 45.91
  C 237.02 42.50 241.40 25.67 246.85 27.05
  A 1.21 1.21 0.0 0 1 247.71 28.60
  C 246.46 32.53 240.51 45.25 249.01 45.07
  Q 256.61 44.92 262.39 38.40
  A 0.46 0.46 0.0 0 1 263.14 38.48
  C 268.73 48.48 284.35 41.05 289.90 34.76
  Q 290.27 34.33 290.65 34.75
  Q 292.59 36.91 291.59 39.84
  C 287.50 51.78 262.96 55.59 252.52 56.67
  Q 185.64 63.54 118.92 71.76
  C 102.70 73.76 88.55 76.53 73.74 80.95
  C 60.59 84.87 47.50 92.43 42.23 105.48
  Q 42.09 105.85 42.45 105.70
  Q 42.95 105.49 43.37 105.19
  C 50.72 99.74 59.88 104.11 63.93 111.32
  Q 64.19 111.78 64.54 111.39
  Q 73.06 101.82 85.95 96.96
  C 104.98 89.80 125.91 84.98 142.50 81.76
  Q 201.22 70.36 260.33 61.17
  C 270.87 59.53 294.52 52.75 295.96 39.42
  Q 296.60 33.48 289.73 31.17
  Q 289.27 31.01 288.98 31.40
  Q 282.90 39.49 273.16 37.86
  Q 270.53 37.42 270.40 34.33
  Q 270.38 33.87 270.84 33.85
  Q 276.98 33.61 281.83 29.83
  C 286.29 26.35 286.19 20.78 279.62 20.06
  C 272.83 19.33 266.82 24.00 264.03 29.72
  C 261.53 34.85 260.47 37.44 254.80 38.90
  A 1.59 1.59 0.0 0 1 252.84 37.08
  Q 253.83 31.56 255.96 25.93
  Q 256.64 24.16 255.19 22.69
  C 251.96 19.41 244.95 22.98 242.43 25.66
  A 0.68 0.68 0.0 0 1 241.26 25.29
  C 240.53 19.91 231.34 24.19 229.18 26.00
  A 0.37 0.36 78.7 0 1 228.60 25.61
  L 229.11 24.00
  Q 229.30 23.40 228.67 23.43
  L 222.59 23.77
  Q 222.07 23.80 221.91 24.30
  C 219.20 33.14 217.99 41.48 209.80 44.47
  Q 209.27 44.66 208.81 44.34
  Q 207.35 43.35 207.99 40.99
  Q 210.04 33.50 212.28 25.86
  A 0.49 0.48 -85.2 0 0 211.76 25.24
  L 205.56 25.96
  Q 204.99 26.02 205.00 26.60
  Q 205.00 26.86 205.00 27.10
  Q 205.01 27.78 204.37 27.55
  C 194.60 24.02 188.04 32.91 185.22 40.88
  Q 183.06 47.02 176.99 49.74
  Q 176.47 49.97 175.98 49.68
  Q 174.10 48.56 175.01 46.00
  Q 176.23 42.55 177.63 36.00
  C 179.33 28.02 171.88 29.57 168.63 32.60
  A 0.34 0.34 0.0 0 1 168.15 32.13
  C 173.59 25.90 178.99 20.22 180.51 11.65
  C 181.47 6.30 178.47 2.72 172.78 4.39
  C 168.63 5.61 164.96 11.21 163.73 15.00
  Q 160.66 24.43 156.04 40.55
  C 153.82 48.27 151.38 53.91 144.00 56.29
  C 132.04 60.13 138.89 36.55 146.64 37.51
  A 0.58 0.57 22.9 0 1 147.02 38.44
  Q 144.87 41.15 147.74 42.50
  Q 148.16 42.70 148.61 42.55
  C 154.00 40.75 152.73 33.68 146.48 33.90
  C 129.57 34.50 132.16 58.63 121.86 58.92
  A 1.98 1.98 0.0 0 1 119.88 56.46
  L 124.46 37.98
  A 0.43 0.43 0.0 0 0 123.99 37.45
  L 117.99 38.09
  Q 117.49 38.15 117.37 38.63
  C 115.63 45.46 114.17 55.12 109.41 60.50
  A 2.77 2.77 0.0 0 1 105.60 60.83
  Q 105.02 60.38 105.45 58.54
  Q 107.57 49.37 109.80 39.97
  A 0.46 0.46 0.0 0 0 109.29 39.40
  L 103.46 40.11
  Q 103.07 40.16 102.96 40.54
  C 100.29 50.12 99.65 60.95 89.09 65.37
  Q 85.67 66.80 83.67 64.58
  C 78.91 59.29 84.85 47.92 90.36 45.13
  A 0.95 0.95 0.0 0 1 91.66 46.36
  L 90.67 48.65
  A 0.64 0.63 34.9 0 0 90.80 49.35
  L 92.32 50.86
  Q 92.66 51.20 93.10 51.01
  C 99.49 48.32 96.43 40.28 90.47 41.23
  Q 80.96 42.74 77.04 52.49
  C 73.83 60.48 72.47 66.10 64.74 70.51
  Q 64.13 70.86 64.40 70.21
  C 66.90 64.33 65.95 58.58 65.06 52.50
  Q 64.44 48.23 67.61 45.60
  Q 67.97 45.31 67.53 45.14
  C 58.00 41.52 52.22 51.56 49.50 58.77
  C 44.64 71.67 36.08 76.81 21.41 73.96
  A 1.80 1.80 0.0 0 1 20.02 71.74
  L 24.98 52.79
  A 1.31 1.30 6.1 0 1 26.21 51.81
  L 40.62 51.44
  Q 41.18 51.43 41.35 50.90
  L 43.29 44.81
  Q 43.51 44.11 42.79 44.23
  L 27.22 46.76
  A 0.44 0.44 0.0 0 1 26.72 46.21
  L 33.24 21.45
  Q 33.38 20.91 33.93 21.01
  Q 38.54 21.88 42.77 23.90
  C 50.46 27.57 57.08 25.56 58.86 16.44
  Q 58.97 15.90 58.46 16.11
  Q 52.27 18.66 45.82 17.74
  C 32.51 15.85 16.02 13.34 8.38 27.32
  C 5.17 33.20 4.93 41.54 12.82 43.62
  Q 13.36 43.77 13.30 43.22
  C 12.50 35.06 15.99 23.83 25.02 21.54
  A 0.55 0.55 0.0 0 1 25.69 22.21
  L 13.42 69.97
  Q 13.26 70.58 12.63 70.64
  Q 5.78 71.27 4.01 77.80
  Q 3.32 80.36 5.33 78.53
  C 7.80 76.29 16.80 78.61 19.61 79.65
  Q 24.52 81.47 26.14 81.67
  C 36.06 82.91 40.30 78.79 46.37 72.06
  Q 46.73 71.66 47.06 72.09
  C 50.67 76.76 57.44 77.52 62.60 75.50
  Q 69.82 72.68 74.32 66.04
  Q 74.73 65.45 74.94 66.13
  C 78.78 78.50 92.02 70.40 96.78 64.35
  Q 97.32 63.66 97.36 64.54"
/>
<path stroke="#808080" vector-effect="non-scaling-stroke" d="
  M 111.75 26.77
  C 113.33 29.39 116.43 32.27 119.53 32.77
  A 1.23 1.23 0.0 0 0 120.45 30.56
  Q 116.97 28.04 116.41 23.80
  A 0.40 0.40 0.0 0 0 115.80 23.52
  L 111.92 26.06
  A 0.54 0.53 -32.0 0 0 111.75 26.77"
/>
<path stroke="#808080" vector-effect="non-scaling-stroke" d="
  M 175.23 10.41
  A 1.52 1.51 -47.9 0 0 172.94 10.53
  C 169.04 15.60 167.65 22.74 165.89 28.74
  Q 165.67 29.50 166.21 28.92
  C 168.94 26.01 178.43 13.75 175.23 10.41"
/>
<path stroke="#808080" vector-effect="non-scaling-stroke" d="
  M 278.67 22.99
  C 274.35 23.30 272.15 26.38 270.43 29.99
  A 0.53 0.53 0.0 0 0 270.91 30.75
  Q 277.00 30.75 280.31 25.83
  A 1.82 1.82 0.0 0 0 278.67 22.99"
/>
<path stroke="#808080" vector-effect="non-scaling-stroke" d="
  M 199.96 39.58
  A 1.77 1.50 -62.7 0 1 199.24 36.44
  C 200.76 35.48 204.43 31.13 200.96 30.31
  C 193.27 28.47 187.68 46.05 193.75 46.53
  C 196.78 46.78 199.15 43.91 200.32 41.28
  Q 200.48 40.93 200.50 40.55
  Q 200.57 39.46 199.96 39.58"
/>
<path stroke="#808080" vector-effect="non-scaling-stroke" d="
  M 50.94 63.86
  C 48.69 69.44 58.97 71.78 59.66 61.73
  Q 59.99 56.85 59.02 52.06
  Q 58.93 51.60 59.17 51.19
  Q 59.33 50.93 59.23 50.61
  A 0.45 0.45 0.0 0 0 58.52 50.41
  C 55.02 53.37 53.01 58.76 50.94 63.86"
/>
</g>
<path fill="#000000" d="
  M 174.82 0.00
  L 176.63 0.00
  C 189.70 3.01 183.86 19.05 177.89 26.10
  Q 177.50 26.56 178.01 26.88
  C 183.46 30.36 182.04 36.87 179.70 41.74
  A 0.38 0.38 0.0 0 0 180.17 42.27
  Q 180.98 41.99 181.25 41.00
  C 183.67 31.88 189.82 23.95 199.74 23.01
  Q 203.32 22.67 205.63 22.15
  C 220.96 18.72 215.45 28.70 212.88 36.44
  Q 212.72 36.92 213.22 37.02
  Q 213.44 37.07 213.67 36.96
  Q 213.96 36.81 214.13 36.32
  Q 216.28 29.94 218.27 23.52
  C 219.70 18.90 227.46 19.50 231.78 19.91
  Q 232.38 19.96 232.93 19.72
  Q 237.77 17.64 242.24 20.27
  A 0.90 0.89 43.4 0 0 243.18 20.25
  C 248.44 16.97 258.86 15.95 259.68 24.22
  C 259.93 26.68 258.60 29.42 258.03 32.00
  Q 257.91 32.55 258.47 32.53
  Q 258.80 32.51 258.93 32.20
  C 262.90 22.62 268.31 16.02 279.31 16.35
  C 285.43 16.53 289.61 20.06 288.46 26.52
  Q 288.37 26.98 288.83 27.09
  Q 300.96 29.92 299.47 40.49
  C 297.26 56.21 271.58 63.58 258.84 65.49
  Q 212.65 72.41 166.73 80.87
  Q 145.51 84.78 114.50 92.00
  C 101.44 95.04 76.83 101.55 68.81 112.30
  C 67.36 114.24 66.03 116.27 63.32 115.61
  C 60.68 114.96 60.61 112.74 59.46 111.24
  C 56.00 106.77 49.83 104.97 45.12 108.31
  C 42.11 110.45 39.06 110.28 38.11 106.25
  Q 38.00 105.79 38.17 105.35
  C 44.71 88.43 61.03 79.98 77.53 76.03
  A 0.55 0.55 0.0 0 0 77.52 74.96
  Q 75.64 74.56 74.58 73.01
  A 0.72 0.72 0.0 0 0 73.48 72.91
  C 66.84 79.47 56.10 83.03 47.60 77.67
  Q 47.13 77.38 46.75 77.78
  C 37.44 87.47 26.96 86.87 15.09 82.19
  Q 11.03 80.59 7.39 82.04
  C 3.89 83.44 1.34 84.53 0.00 80.15
  L 0.00 78.19
  Q 1.51 69.71 9.83 67.17
  Q 10.28 67.04 10.40 66.58
  L 15.26 47.78
  A 0.63 0.63 0.0 0 0 14.70 46.99
  Q 14.30 46.96 14.14 47.25
  A 0.43 0.42 -73.2 0 1 13.76 47.46
  Q 5.48 47.07 3.26 39.73
  C -0.28 28.06 8.99 16.73 19.63 13.74
  C 27.44 11.55 38.47 12.81 47.25 13.98
  Q 51.97 14.60 56.23 12.84
  C 67.95 7.98 61.99 32.49 47.09 29.29
  Q 41.88 28.17 37.17 25.50
  A 0.81 0.81 0.0 0 0 35.98 26.00
  L 31.99 41.00
  Q 31.64 42.29 32.97 42.05
  C 37.86 41.15 48.92 37.10 46.49 46.99
  C 45.45 51.24 44.57 55.38 39.75 55.26
  Q 34.20 55.13 28.88 55.49
  A 1.04 1.03 -84.5 0 0 27.95 56.26
  L 24.35 70.23
  Q 24.27 70.55 24.59 70.60
  C 34.04 72.21 41.78 68.45 45.16 59.61
  C 49.05 49.45 54.60 38.24 68.00 41.29
  Q 72.11 42.23 72.00 45.97
  A 1.24 1.23 -23.9 0 1 71.69 46.76
  L 69.29 49.42
  Q 68.87 49.89 68.91 50.53
  L 69.47 59.00
  A 0.59 0.58 63.1 0 0 70.50 59.34
  Q 71.16 58.55 71.42 57.28
  Q 72.31 52.89 74.37 48.91
  C 78.44 41.10 90.50 32.81 98.46 40.68
  Q 98.63 40.84 98.73 40.63
  Q 100.53 36.81 103.33 36.45
  C 106.59 36.02 110.87 34.46 113.22 37.50
  Q 113.87 38.33 114.01 37.29
  Q 114.15 36.35 114.83 35.71
  Q 115.34 35.24 114.75 34.89
  C 111.56 33.00 104.77 27.16 109.68 23.11
  C 113.42 20.03 118.23 17.10 120.11 23.63
  C 121.26 27.61 126.80 28.66 124.33 33.22
  Q 124.03 33.78 124.66 33.82
  C 127.90 34.07 128.80 36.26 128.07 39.25
  Q 126.66 45.02 125.04 50.76
  Q 124.89 51.32 125.20 51.58
  A 0.35 0.35 0.0 0 0 125.75 51.43
  C 129.18 42.02 131.45 35.11 141.21 30.98
  Q 147.87 28.17 153.88 32.65
  Q 154.35 33.00 154.52 32.44
  C 157.75 21.40 160.52 2.19 174.82 0.00
  Z
  M 97.36 64.54
  C 97.72 74.05 109.23 67.37 112.02 63.58
  Q 112.39 63.06 112.60 63.67
  C 115.62 72.63 127.29 61.63 129.80 57.94
  Q 130.22 57.33 130.50 58.02
  C 134.52 67.79 146.33 61.41 151.12 56.05
  Q 151.91 55.16 151.56 56.30
  L 150.43 59.89
  Q 150.27 60.40 150.81 60.37
  Q 154.12 60.23 157.05 58.68
  A 1.15 1.13 83.2 0 0 157.64 57.92
  C 158.66 53.14 162.85 35.16 168.34 36.32
  C 169.80 36.63 169.78 38.16 169.41 39.42
  C 167.85 44.85 164.97 53.16 167.42 55.82
  C 171.70 60.45 181.50 52.29 184.16 49.07
  Q 184.62 48.51 184.79 49.22
  C 186.66 57.13 195.85 52.76 199.13 48.94
  Q 199.53 48.48 199.81 49.02
  C 202.66 54.45 210.95 49.46 214.13 46.84
  A 0.32 0.32 0.0 0 1 214.64 47.17
  L 214.24 48.73
  Q 214.08 49.37 214.73 49.26
  L 220.72 48.28
  Q 221.27 48.19 221.46 47.67
  C 222.96 43.43 226.85 28.41 232.46 28.24
  A 1.40 1.40 0.0 0 1 233.83 30.07
  L 228.55 46.37
  A 0.55 0.54 5.9 0 0 229.13 47.08
  L 235.14 46.43
  Q 235.63 46.38 235.80 45.91
  C 237.02 42.50 241.40 25.67 246.85 27.05
  A 1.21 1.21 0.0 0 1 247.71 28.60
  C 246.46 32.53 240.51 45.25 249.01 45.07
  Q 256.61 44.92 262.39 38.40
  A 0.46 0.46 0.0 0 1 263.14 38.48
  C 268.73 48.48 284.35 41.05 289.90 34.76
  Q 290.27 34.33 290.65 34.75
  Q 292.59 36.91 291.59 39.84
  C 287.50 51.78 262.96 55.59 252.52 56.67
  Q 185.64 63.54 118.92 71.76
  C 102.70 73.76 88.55 76.53 73.74 80.95
  C 60.59 84.87 47.50 92.43 42.23 105.48
  Q 42.09 105.85 42.45 105.70
  Q 42.95 105.49 43.37 105.19
  C 50.72 99.74 59.88 104.11 63.93 111.32
  Q 64.19 111.78 64.54 111.39
  Q 73.06 101.82 85.95 96.96
  C 104.98 89.80 125.91 84.98 142.50 81.76
  Q 201.22 70.36 260.33 61.17
  C 270.87 59.53 294.52 52.75 295.96 39.42
  Q 296.60 33.48 289.73 31.17
  Q 289.27 31.01 288.98 31.40
  Q 282.90 39.49 273.16 37.86
  Q 270.53 37.42 270.40 34.33
  Q 270.38 33.87 270.84 33.85
  Q 276.98 33.61 281.83 29.83
  C 286.29 26.35 286.19 20.78 279.62 20.06
  C 272.83 19.33 266.82 24.00 264.03 29.72
  C 261.53 34.85 260.47 37.44 254.80 38.90
  A 1.59 1.59 0.0 0 1 252.84 37.08
  Q 253.83 31.56 255.96 25.93
  Q 256.64 24.16 255.19 22.69
  C 251.96 19.41 244.95 22.98 242.43 25.66
  A 0.68 0.68 0.0 0 1 241.26 25.29
  C 240.53 19.91 231.34 24.19 229.18 26.00
  A 0.37 0.36 78.7 0 1 228.60 25.61
  L 229.11 24.00
  Q 229.30 23.40 228.67 23.43
  L 222.59 23.77
  Q 222.07 23.80 221.91 24.30
  C 219.20 33.14 217.99 41.48 209.80 44.47
  Q 209.27 44.66 208.81 44.34
  Q 207.35 43.35 207.99 40.99
  Q 210.04 33.50 212.28 25.86
  A 0.49 0.48 -85.2 0 0 211.76 25.24
  L 205.56 25.96
  Q 204.99 26.02 205.00 26.60
  Q 205.00 26.86 205.00 27.10
  Q 205.01 27.78 204.37 27.55
  C 194.60 24.02 188.04 32.91 185.22 40.88
  Q 183.06 47.02 176.99 49.74
  Q 176.47 49.97 175.98 49.68
  Q 174.10 48.56 175.01 46.00
  Q 176.23 42.55 177.63 36.00
  C 179.33 28.02 171.88 29.57 168.63 32.60
  A 0.34 0.34 0.0 0 1 168.15 32.13
  C 173.59 25.90 178.99 20.22 180.51 11.65
  C 181.47 6.30 178.47 2.72 172.78 4.39
  C 168.63 5.61 164.96 11.21 163.73 15.00
  Q 160.66 24.43 156.04 40.55
  C 153.82 48.27 151.38 53.91 144.00 56.29
  C 132.04 60.13 138.89 36.55 146.64 37.51
  A 0.58 0.57 22.9 0 1 147.02 38.44
  Q 144.87 41.15 147.74 42.50
  Q 148.16 42.70 148.61 42.55
  C 154.00 40.75 152.73 33.68 146.48 33.90
  C 129.57 34.50 132.16 58.63 121.86 58.92
  A 1.98 1.98 0.0 0 1 119.88 56.46
  L 124.46 37.98
  A 0.43 0.43 0.0 0 0 123.99 37.45
  L 117.99 38.09
  Q 117.49 38.15 117.37 38.63
  C 115.63 45.46 114.17 55.12 109.41 60.50
  A 2.77 2.77 0.0 0 1 105.60 60.83
  Q 105.02 60.38 105.45 58.54
  Q 107.57 49.37 109.80 39.97
  A 0.46 0.46 0.0 0 0 109.29 39.40
  L 103.46 40.11
  Q 103.07 40.16 102.96 40.54
  C 100.29 50.12 99.65 60.95 89.09 65.37
  Q 85.67 66.80 83.67 64.58
  C 78.91 59.29 84.85 47.92 90.36 45.13
  A 0.95 0.95 0.0 0 1 91.66 46.36
  L 90.67 48.65
  A 0.64 0.63 34.9 0 0 90.80 49.35
  L 92.32 50.86
  Q 92.66 51.20 93.10 51.01
  C 99.49 48.32 96.43 40.28 90.47 41.23
  Q 80.96 42.74 77.04 52.49
  C 73.83 60.48 72.47 66.10 64.74 70.51
  Q 64.13 70.86 64.40 70.21
  C 66.90 64.33 65.95 58.58 65.06 52.50
  Q 64.44 48.23 67.61 45.60
  Q 67.97 45.31 67.53 45.14
  C 58.00 41.52 52.22 51.56 49.50 58.77
  C 44.64 71.67 36.08 76.81 21.41 73.96
  A 1.80 1.80 0.0 0 1 20.02 71.74
  L 24.98 52.79
  A 1.31 1.30 6.1 0 1 26.21 51.81
  L 40.62 51.44
  Q 41.18 51.43 41.35 50.90
  L 43.29 44.81
  Q 43.51 44.11 42.79 44.23
  L 27.22 46.76
  A 0.44 0.44 0.0 0 1 26.72 46.21
  L 33.24 21.45
  Q 33.38 20.91 33.93 21.01
  Q 38.54 21.88 42.77 23.90
  C 50.46 27.57 57.08 25.56 58.86 16.44
  Q 58.97 15.90 58.46 16.11
  Q 52.27 18.66 45.82 17.74
  C 32.51 15.85 16.02 13.34 8.38 27.32
  C 5.17 33.20 4.93 41.54 12.82 43.62
  Q 13.36 43.77 13.30 43.22
  C 12.50 35.06 15.99 23.83 25.02 21.54
  A 0.55 0.55 0.0 0 1 25.69 22.21
  L 13.42 69.97
  Q 13.26 70.58 12.63 70.64
  Q 5.78 71.27 4.01 77.80
  Q 3.32 80.36 5.33 78.53
  C 7.80 76.29 16.80 78.61 19.61 79.65
  Q 24.52 81.47 26.14 81.67
  C 36.06 82.91 40.30 78.79 46.37 72.06
  Q 46.73 71.66 47.06 72.09
  C 50.67 76.76 57.44 77.52 62.60 75.50
  Q 69.82 72.68 74.32 66.04
  Q 74.73 65.45 74.94 66.13
  C 78.78 78.50 92.02 70.40 96.78 64.35
  Q 97.32 63.66 97.36 64.54
  Z
  M 111.75 26.77
  C 113.33 29.39 116.43 32.27 119.53 32.77
  A 1.23 1.23 0.0 0 0 120.45 30.56
  Q 116.97 28.04 116.41 23.80
  A 0.40 0.40 0.0 0 0 115.80 23.52
  L 111.92 26.06
  A 0.54 0.53 -32.0 0 0 111.75 26.77
  Z
  M 19.75 30.95
  L 19.00 30.74
  A 0.15 0.15 0.0 0 0 18.82 30.84
  L 16.85 37.84
  A 1.80 0.52 -74.3 0 0 16.86 39.71
  L 16.90 39.72
  A 1.80 0.52 -74.3 0 0 17.89 38.13
  L 19.86 31.13
  A 0.15 0.15 0.0 0 0 19.75 30.95
  Z
  M 183.17 55.40
  C 178.20 59.62 164.65 65.54 162.85 54.48
  A 0.27 0.27 0.0 0 0 162.32 54.45
  L 160.34 61.16
  A 0.99 0.97 -2.1 0 1 159.73 61.80
  L 158.69 62.15
  A 0.42 0.42 0.0 0 0 158.78 62.97
  C 161.34 63.22 163.68 62.27 166.03 62.23
  C 172.15 62.11 177.73 60.74 185.21 60.18
  Q 187.54 60.00 190.75 59.48
  C 195.33 58.73 201.68 58.34 204.67 57.97
  Q 227.21 55.19 249.81 53.06
  C 253.57 52.71 258.21 51.74 262.50 51.48
  C 264.03 51.39 274.00 49.48 277.99 46.70
  A 0.34 0.34 0.0 0 0 277.70 46.10
  Q 269.72 48.63 262.76 44.09
  Q 262.31 43.80 261.89 44.11
  C 255.92 48.51 245.65 52.16 241.14 44.34
  A 0.46 0.46 0.0 0 0 240.32 44.40
  L 238.49 49.12
  A 1.02 1.02 0.0 0 1 237.68 49.75
  C 233.29 50.35 228.57 52.16 225.64 49.89
  Q 225.21 49.56 224.83 49.96
  C 221.97 52.96 215.06 53.22 211.18 53.12
  A 0.74 0.72 29.1 0 0 210.81 53.22
  Q 205.49 56.39 199.67 54.43
  Q 199.15 54.25 198.68 54.55
  C 194.11 57.50 188.84 58.47 184.01 55.35
  Q 183.57 55.06 183.17 55.40
  Z
  M 149.60 46.25
  C 146.76 46.23 145.91 46.44 143.86 44.37
  A 0.41 0.41 0.0 0 0 143.20 44.46
  Q 141.20 48.11 141.20 52.24
  A 0.77 0.77 0.0 0 0 142.23 52.96
  Q 147.03 51.18 149.97 46.97
  A 0.46 0.46 0.0 0 0 149.60 46.25
  Z
  M 92.55 54.78
  Q 90.49 54.42 89.08 52.90
  A 1.00 1.00 0.0 0 0 87.42 53.20
  Q 85.90 56.87 85.97 60.92
  A 1.18 1.18 0.0 0 0 87.62 61.98
  Q 92.61 59.82 95.09 54.97
  Q 95.45 54.26 94.68 54.46
  L 93.64 54.73
  Q 93.10 54.87 92.55 54.78
  Z
  M 131.66 65.27
  L 130.19 64.38
  A 0.59 0.58 -49.0 0 0 129.52 64.43
  L 127.33 66.19
  A 0.51 0.51 0.0 0 0 127.79 67.08
  L 131.55 66.04
  Q 132.51 65.78 131.66 65.27
  Z"
/>
<path fill="#ffffff" d="
  M 96.78 64.35
  C 92.02 70.40 78.78 78.50 74.94 66.13
  Q 74.73 65.45 74.32 66.04
  Q 69.82 72.68 62.60 75.50
  C 57.44 77.52 50.67 76.76 47.06 72.09
  Q 46.73 71.66 46.37 72.06
  C 40.30 78.79 36.06 82.91 26.14 81.67
  Q 24.52 81.47 19.61 79.65
  C 16.80 78.61 7.80 76.29 5.33 78.53
  Q 3.32 80.36 4.01 77.80
  Q 5.78 71.27 12.63 70.64
  Q 13.26 70.58 13.42 69.97
  L 25.69 22.21
  A 0.55 0.55 0.0 0 0 25.02 21.54
  C 15.99 23.83 12.50 35.06 13.30 43.22
  Q 13.36 43.77 12.82 43.62
  C 4.93 41.54 5.17 33.20 8.38 27.32
  C 16.02 13.34 32.51 15.85 45.82 17.74
  Q 52.27 18.66 58.46 16.11
  Q 58.97 15.90 58.86 16.44
  C 57.08 25.56 50.46 27.57 42.77 23.90
  Q 38.54 21.88 33.93 21.01
  Q 33.38 20.91 33.24 21.45
  L 26.72 46.21
  A 0.44 0.44 0.0 0 0 27.22 46.76
  L 42.79 44.23
  Q 43.51 44.11 43.29 44.81
  L 41.35 50.90
  Q 41.18 51.43 40.62 51.44
  L 26.21 51.81
  A 1.31 1.30 6.1 0 0 24.98 52.79
  L 20.02 71.74
  A 1.80 1.80 0.0 0 0 21.41 73.96
  C 36.08 76.81 44.64 71.67 49.50 58.77
  C 52.22 51.56 58.00 41.52 67.53 45.14
  Q 67.97 45.31 67.61 45.60
  Q 64.44 48.23 65.06 52.50
  C 65.95 58.58 66.90 64.33 64.40 70.21
  Q 64.13 70.86 64.74 70.51
  C 72.47 66.10 73.83 60.48 77.04 52.49
  Q 80.96 42.74 90.47 41.23
  C 96.43 40.28 99.49 48.32 93.10 51.01
  Q 92.66 51.20 92.32 50.86
  L 90.80 49.35
  A 0.64 0.63 34.9 0 1 90.67 48.65
  L 91.66 46.36
  A 0.95 0.95 0.0 0 0 90.36 45.13
  C 84.85 47.92 78.91 59.29 83.67 64.58
  Q 85.67 66.80 89.09 65.37
  C 99.65 60.95 100.29 50.12 102.96 40.54
  Q 103.07 40.16 103.46 40.11
  L 109.29 39.40
  A 0.46 0.46 0.0 0 1 109.80 39.97
  Q 107.57 49.37 105.45 58.54
  Q 105.02 60.38 105.60 60.83
  A 2.77 2.77 0.0 0 0 109.41 60.50
  C 114.17 55.12 115.63 45.46 117.37 38.63
  Q 117.49 38.15 117.99 38.09
  L 123.99 37.45
  A 0.43 0.43 0.0 0 1 124.46 37.98
  L 119.88 56.46
  A 1.98 1.98 0.0 0 0 121.86 58.92
  C 132.16 58.63 129.57 34.50 146.48 33.90
  C 152.73 33.68 154.00 40.75 148.61 42.55
  Q 148.16 42.70 147.74 42.50
  Q 144.87 41.15 147.02 38.44
  A 0.58 0.57 22.9 0 0 146.64 37.51
  C 138.89 36.55 132.04 60.13 144.00 56.29
  C 151.38 53.91 153.82 48.27 156.04 40.55
  Q 160.66 24.43 163.73 15.00
  C 164.96 11.21 168.63 5.61 172.78 4.39
  C 178.47 2.72 181.47 6.30 180.51 11.65
  C 178.99 20.22 173.59 25.90 168.15 32.13
  A 0.34 0.34 0.0 0 0 168.63 32.60
  C 171.88 29.57 179.33 28.02 177.63 36.00
  Q 176.23 42.55 175.01 46.00
  Q 174.10 48.56 175.98 49.68
  Q 176.47 49.97 176.99 49.74
  Q 183.06 47.02 185.22 40.88
  C 188.04 32.91 194.60 24.02 204.37 27.55
  Q 205.01 27.78 205.00 27.10
  Q 205.00 26.86 205.00 26.60
  Q 204.99 26.02 205.56 25.96
  L 211.76 25.24
  A 0.49 0.48 -85.2 0 1 212.28 25.86
  Q 210.04 33.50 207.99 40.99
  Q 207.35 43.35 208.81 44.34
  Q 209.27 44.66 209.80 44.47
  C 217.99 41.48 219.20 33.14 221.91 24.30
  Q 222.07 23.80 222.59 23.77
  L 228.67 23.43
  Q 229.30 23.40 229.11 24.00
  L 228.60 25.61
  A 0.37 0.36 78.7 0 0 229.18 26.00
  C 231.34 24.19 240.53 19.91 241.26 25.29
  A 0.68 0.68 0.0 0 0 242.43 25.66
  C 244.95 22.98 251.96 19.41 255.19 22.69
  Q 256.64 24.16 255.96 25.93
  Q 253.83 31.56 252.84 37.08
  A 1.59 1.59 0.0 0 0 254.80 38.90
  C 260.47 37.44 261.53 34.85 264.03 29.72
  C 266.82 24.00 272.83 19.33 279.62 20.06
  C 286.19 20.78 286.29 26.35 281.83 29.83
  Q 276.98 33.61 270.84 33.85
  Q 270.38 33.87 270.40 34.33
  Q 270.53 37.42 273.16 37.86
  Q 282.90 39.49 288.98 31.40
  Q 289.27 31.01 289.73 31.17
  Q 296.60 33.48 295.96 39.42
  C 294.52 52.75 270.87 59.53 260.33 61.17
  Q 201.22 70.36 142.50 81.76
  C 125.91 84.98 104.98 89.80 85.95 96.96
  Q 73.06 101.82 64.54 111.39
  Q 64.19 111.78 63.93 111.32
  C 59.88 104.11 50.72 99.74 43.37 105.19
  Q 42.95 105.49 42.45 105.70
  Q 42.09 105.85 42.23 105.48
  C 47.50 92.43 60.59 84.87 73.74 80.95
  C 88.55 76.53 102.70 73.76 118.92 71.76
  Q 185.64 63.54 252.52 56.67
  C 262.96 55.59 287.50 51.78 291.59 39.84
  Q 292.59 36.91 290.65 34.75
  Q 290.27 34.33 289.90 34.76
  C 284.35 41.05 268.73 48.48 263.14 38.48
  A 0.46 0.46 0.0 0 0 262.39 38.40
  Q 256.61 44.92 249.01 45.07
  C 240.51 45.25 246.46 32.53 247.71 28.60
  A 1.21 1.21 0.0 0 0 246.85 27.05
  C 241.40 25.67 237.02 42.50 235.80 45.91
  Q 235.63 46.38 235.14 46.43
  L 229.13 47.08
  A 0.55 0.54 5.9 0 1 228.55 46.37
  L 233.83 30.07
  A 1.40 1.40 0.0 0 0 232.46 28.24
  C 226.85 28.41 222.96 43.43 221.46 47.67
  Q 221.27 48.19 220.72 48.28
  L 214.73 49.26
  Q 214.08 49.37 214.24 48.73
  L 214.64 47.17
  A 0.32 0.32 0.0 0 0 214.13 46.84
  C 210.95 49.46 202.66 54.45 199.81 49.02
  Q 199.53 48.48 199.13 48.94
  C 195.85 52.76 186.66 57.13 184.79 49.22
  Q 184.62 48.51 184.16 49.07
  C 181.50 52.29 171.70 60.45 167.42 55.82
  C 164.97 53.16 167.85 44.85 169.41 39.42
  C 169.78 38.16 169.80 36.63 168.34 36.32
  C 162.85 35.16 158.66 53.14 157.64 57.92
  A 1.15 1.13 83.2 0 1 157.05 58.68
  Q 154.12 60.23 150.81 60.37
  Q 150.27 60.40 150.43 59.89
  L 151.56 56.30
  Q 151.91 55.16 151.12 56.05
  C 146.33 61.41 134.52 67.79 130.50 58.02
  Q 130.22 57.33 129.80 57.94
  C 127.29 61.63 115.62 72.63 112.60 63.67
  Q 112.39 63.06 112.02 63.58
  C 109.23 67.37 97.72 74.05 97.36 64.54
  Q 97.32 63.66 96.78 64.35
  Z
  M 175.23 10.41
  A 1.52 1.51 -47.9 0 0 172.94 10.53
  C 169.04 15.60 167.65 22.74 165.89 28.74
  Q 165.67 29.50 166.21 28.92
  C 168.94 26.01 178.43 13.75 175.23 10.41
  Z
  M 278.67 22.99
  C 274.35 23.30 272.15 26.38 270.43 29.99
  A 0.53 0.53 0.0 0 0 270.91 30.75
  Q 277.00 30.75 280.31 25.83
  A 1.82 1.82 0.0 0 0 278.67 22.99
  Z
  M 199.96 39.58
  A 1.77 1.50 -62.7 0 1 199.24 36.44
  C 200.76 35.48 204.43 31.13 200.96 30.31
  C 193.27 28.47 187.68 46.05 193.75 46.53
  C 196.78 46.78 199.15 43.91 200.32 41.28
  Q 200.48 40.93 200.50 40.55
  Q 200.57 39.46 199.96 39.58
  Z
  M 50.94 63.86
  C 48.69 69.44 58.97 71.78 59.66 61.73
  Q 59.99 56.85 59.02 52.06
  Q 58.93 51.60 59.17 51.19
  Q 59.33 50.93 59.23 50.61
  A 0.45 0.45 0.0 0 0 58.52 50.41
  C 55.02 53.37 53.01 58.76 50.94 63.86
  Z"
/>
<path fill="#000000" d="
  M 175.23 10.41
  C 178.43 13.75 168.94 26.01 166.21 28.92
  Q 165.67 29.50 165.89 28.74
  C 167.65 22.74 169.04 15.60 172.94 10.53
  A 1.52 1.51 -47.9 0 1 175.23 10.41
  Z"
/>
<path fill="#000000" d="
  M 270.43 29.99
  C 272.15 26.38 274.35 23.30 278.67 22.99
  A 1.82 1.82 0.0 0 1 280.31 25.83
  Q 277.00 30.75 270.91 30.75
  A 0.53 0.53 0.0 0 1 270.43 29.99
  Z"
/>
<path fill="#ffffff" d="
  M 119.53 32.77
  C 116.43 32.27 113.33 29.39 111.75 26.77
  A 0.54 0.53 -32.0 0 1 111.92 26.06
  L 115.80 23.52
  A 0.40 0.40 0.0 0 1 116.41 23.80
  Q 116.97 28.04 120.45 30.56
  A 1.23 1.23 0.0 0 1 119.53 32.77
  Z"
/>
<path fill="#000000" d="
  M 199.96 39.58
  Q 200.57 39.46 200.50 40.55
  Q 200.48 40.93 200.32 41.28
  C 199.15 43.91 196.78 46.78 193.75 46.53
  C 187.68 46.05 193.27 28.47 200.96 30.31
  C 204.43 31.13 200.76 35.48 199.24 36.44
  A 1.77 1.50 -62.7 0 0 199.96 39.58
  Z
  M 195.16 40.98
  L 195.00 41.74
  A 0.45 0.45 0.0 0 0 195.83 42.06
  Q 196.12 41.57 195.99 40.98
  A 0.43 0.42 44.8 0 0 195.16 40.98
  Z"
/>
<path fill="#000000" d="
  M 59.66 61.73
  C 58.97 71.78 48.69 69.44 50.94 63.86
  C 53.01 58.76 55.02 53.37 58.52 50.41
  A 0.45 0.45 0.0 0 1 59.23 50.61
  Q 59.33 50.93 59.17 51.19
  Q 58.93 51.60 59.02 52.06
  Q 59.99 56.85 59.66 61.73
  Z"
/>
</svg>
